<svg xmlns="http://www.w3.org/2000/svg" viewBox="0 0 512 512">
  <defs>
    <linearGradient id="bg" x1="0%" y1="0%" x2="100%" y2="100%">
      <stop offset="0%" style="stop-color:#d97706"/>
      <stop offset="100%" style="stop-color:#ea580c"/>
    </linearGradient>
  </defs>
  <rect width="512" height="512" rx="100" fill="url(#bg)"/>
  <!-- Bell body -->
  <path d="M256 100 C180 100 130 165 130 240 L130 340 L100 370 L412 370 L382 340 L382 240 C382 165 332 100 256 100 Z" fill="white" opacity="0.92"/>
  <!-- Bell bottom handle -->
  <rect x="220" y="368" width="72" height="36" rx="18" fill="white" opacity="0.92"/>
  <!-- Bell clapper -->
  <circle cx="256" cy="420" r="28" fill="white" opacity="0.92"/>
  <!-- Alert ring/pulse -->
  <circle cx="370" cy="145" r="52" fill="#dc2626"/>
  <circle cx="370" cy="145" r="52" fill="none" stroke="rgba(220,38,38,0.4)" stroke-width="16"/>
  <!-- Exclamation -->
  <rect x="362" y="108" width="16" height="52" rx="8" fill="white"/>
  <circle cx="370" cy="178" r="10" fill="white"/>
  <!-- Price lines (decorative) -->
  <line x1="85" y1="460" x2="145" y2="460" stroke="rgba(255,255,255,0.4)" stroke-width="6" stroke-linecap="round"/>
  <line x1="85" y1="478" x2="120" y2="478" stroke="rgba(255,255,255,0.25)" stroke-width="4" stroke-linecap="round"/>
</svg>
